# xmcd CD database file
# Copyright (C) 1993-1998 Ti Kan
#
# Track frame offsets:
#	150
#	20690
#	36135
#	60410
#	77440
#	93403
#	117473
#	130253
#	151640
#	172040
#	185298
#	212648
#	231648
#	254213
#
# Disc length: 3688 seconds
#
# Revision: 1
# Processed by: cddbd v1.4b41PL1 Copyright (c) Steve Scherf et al.
# Submitted via: CDValet v3.31 - Copyright (c) 1997 Greg Leichner
#
DISCID=bd0e660e
DTITLE=Otis and the Alligators - Serious Alligations
DYEAR=1900
DGENRE=
TTITLE0=Shake and Fingerpop
TTITLE1=Bad Barbecue
TTITLE2=Mojo Crossroads
TTITLE3=Brick Layin' Man
TTITLE4=Lady
TTITLE5=I'll Move On
TTITLE6=Paid Too Much
TTITLE7=It Ain't That I Don't Love You
TTITLE8=Same Old Grind
TTITLE9=Part Time Love
TTITLE10=The Thrill is Gone
TTITLE11=Sailor's Grill and Rec
TTITLE12=I Didn't Come to Dance
TTITLE13=Love is Aflame
EXTD=
EXTT0=
EXTT1=
EXTT2=
EXTT3=
EXTT4=
EXTT5=
EXTT6=
EXTT7=
EXTT8=
EXTT9=
EXTT10=
EXTT11=
EXTT12=
EXTT13=
PLAYORDER=
